# AST/ASF file generated using VICON BodyLanguage
# -----------------------------------------------
:version 1.10
:name VICON
:units
  mass 1.0
  length 0.45
  angle deg
:documentation
   .ast/.asf automatically generated from VICON data using
   VICON BodyBuilder and BodyLanguage model FoxedUp or BRILLIANT.MOD
:root
   order TX TY TZ RX RY RZ
   axis XYZ
   position 0 0 0  
   orientation 0 0 0 
:bonedata
  begin
     id 1 
     name lhipjoint
     direction 0.671379 -0.66392 0.329334 
     length 2.38647 
     axis 0 0 0  XYZ
  end
  begin
     id 2 
     name lfemur
     direction 0.34202 -0.939693 0  
     length 6.48179  
     axis 0 0 20  XYZ
    dof rx ry rz
    limits (-160.0 20.0)
           (-70.0 70.0)
           (-60.0 70.0)
  end
  begin
     id 3 
     name ltibia
     direction 0.34202 -0.939693 0   
     length 6.86524   
     axis 0 0 20   XYZ
    dof rx
    limits (-10.0 170.0)
  end
  begin
     id 4 
     name lfoot
     direction 0.204886 -0.562919 0.800715   
     length 1.73031   
     axis -90 7.62852e-016 20   XYZ
    dof rx rz
    limits (-45.0 90.0)
           (-70.0 20.0)
  end
  begin
     id 5 
     name ltoes
     direction 1.53548e-011 -4.21841e-011 1   
     length 0.828161   
     axis -90 7.62852e-016 20   XYZ
    dof rx
    limits (-90.0 20.0)
  end
  begin
     id 6 
     name rhipjoint
     direction -0.662732 -0.670855 0.332775   
     length 2.3618  
     axis 0 0 0  XYZ 
  end
  begin
     id 7 
     name rfemur
     direction -0.34202 -0.939693 0   
     length 6.3025   
     axis 0 0 -20   XYZ
    dof rx ry rz
    limits (-160.0 20.0)
           (-70.0 70.0)
           (-70.0 60.0)
  end
  begin
     id 8 
     name rtibia
     direction -0.34202 -0.939693 0   
     length 6.8732   
     axis 0 0 -20   XYZ
    dof rx
    limits (-10.0 170.0)
 end
 begin
     id 9 
     name rfoot
     direction -0.173856 -0.477665 0.861168   
     length 1.54784  
     axis -90 -7.62852e-016 -20   XYZ
    dof rx rz
    limits (-45.0 90.0)
           (-20.0 70.0)
  end
  begin
     id 10 
     name rtoes
     direction -1.53562e-011 -4.21802e-011 1   
     length 0.759618   
     axis -90 -7.62852e-016 -20   XYZ
    dof rx
    limits (-90.0 20.0)
  end
  begin
     id 11 
     name lowerback
     direction -0.0278357 0.999497 -0.0151789   
     length 1.97203   
     axis 0 0 0   XYZ
    dof rx ry rz
    limits (-20.0 45.0)
           (-30.0 30.0)
           (-30.0 30.0)
  end
  begin
     id 12 
     name upperback
     direction -0.00360622 0.997542 0.0699804   
     length 1.94709   
     axis 0 0 0   XYZ
    dof rx ry rz
    limits (-20.0 45.0)
           (-30.0 30.0)
           (-30.0 30.0)
  end
  begin
     id 13 
     name thorax
     direction 0.00907706 0.997048 0.0762461   
     length 1.95722   
     axis 0 0 0   XYZ
    dof rx ry rz
    limits (-20.0 45.0)
           (-30.0 30.0)
           (-30.0 30.0)
  end
  begin
     id 14 
     name lowerneck
     direction -0.0481835 0.99872 -0.0153927   
     length 1.63078   
     axis 0 0 0   XYZ
    dof rx ry rz
    limits (-20.0 45.0)
           (-30.0 30.0)
           (-30.0 30.0)
  end
  begin
     id 15 
     name upperneck
     direction 0.0859716 0.979226 -0.183644   
     length 1.62591   
     axis 0 0 0   XYZ
    dof rx ry rz
    limits (-20.0 45.0)
           (-30.0 30.0)
           (-30.0 30.0)
  end
  begin
     id 16
     name head
     direction 0.0324821 0.997629 -0.0606773  
     length 1.64811  
     axis 0 0 0   XYZ
    dof rx ry rz
    limits (-20.0 45.0)
           (-30.0 30.0)
           (-30.0 30.0)
  end
  begin
     id 17 
     name lclavicle
     direction 0.939609 0.311019 0.142835  
     length 3.70647  
     axis 0 0 0   XYZ
    dof ry rz
    limits (-20.0 10.0)
           (0.0 20.0)
  end
  begin
     id 18 
     name lhumerus
     direction 1 -4.48963e-011 -1.59838e-027   
     length 4.59207   
     axis 180 -30 -90   XYZ
    dof rx ry rz
    limits (-60.0 90.0)
           (-90.0 90.0)
           (-90.0 90.0)
  end
  begin
     id 19
     name lradius
     direction 1 -4.48957e-011 -1.3483e-026   
     length 2.98109   
     axis 180 -30 -90   XYZ
    dof rx
    limits (-10.0 170.0)
  end
  begin
     id 20
     name lwrist
     direction 1 -4.48954e-011 -3.11579e-026   
     length 1.49055   
     axis 2.00652e-014 90 90   XYZ
    dof ry
    limits (-180.0 0.0)
 end
  begin
     id 21 
     name lhand
     direction 1 -4.4911e-011 -6.23158e-026   
     length 0.480203   
     axis 3.97628e-014 90 90   XYZ
    dof rx rz
    limits (-90.0 90.0)
           (-45.0 45.0)
  end
  begin
     id 22 
     name lfingers
     direction 1 -4.48893e-011 -1.24632e-025   
     length 0.387152   
     axis 7.95256e-014 90 90   XYZ
    dof rx
    limits (0.0 90.0)
  end
  begin
     id 23
     name lthumb
     direction 0.707107 -6.35013e-011 0.707107   
     length 0.555875   
     axis -90 45 2.85299e-015   XYZ
    dof rx rz
    limits (-45.0 45.0)
           (-45.0 45.0)
  end
  begin
     id 24 
     name rclavicle
     direction -0.950396 0.30392 0.0661859   
     length 3.70894  
     axis 0 0 0   XYZ 
    dof ry rz
    limits (-10.0 20.0)
           (-20.0 0.0)
  end
  begin
     id 25 
     name rhumerus
     direction -1 -4.48957e-011 -2.96677e-027  
     length 4.76508   
     axis 180 30 90   XYZ
    dof rx ry rz
    limits (-90.0 60.0)
           (-90.0 90.0)
           (-90.0 90.0)
  end
  begin
     id 26 
     name rradius
     direction -1 -4.48974e-011 -1.44501e-026   
     length 2.78902   
     axis 180 30 90   XYZ
    dof rx
    limits (-10.0 170.0)
  end
  begin
     id 27 
     name rwrist
     direction -1 -4.48978e-011 -3.11579e-026   
     length 1.39451   
     axis 2.00652e-014 -90 -90   XYZ
    dof ry
    limits (-180.0 0.0)
  end
  begin
     id 28
     name rhand
     direction -1 -4.48956e-011 -6.23158e-026   
     length 0.721303   
     axis 3.97628e-014 -90 -90   XYZ
    dof rx rz
    limits (-90.0 90.0)
           (-45.0 45.0)
  end
  begin
     id 29
     name rfingers
     direction -1 -4.4899e-011 -1.24632e-025   
     length 0.581533   
     axis 7.95256e-014 -90 -90   XYZ
    dof rx
    limits (0.0 90.0)
  end
  begin
     id 30
     name rthumb
     direction -0.707107 -6.34911e-011 0.707107   
     length 0.834968   
     axis -90 -45 -2.85299e-015   XYZ
    dof rx rz
    limits (-45.0 45.0)
           (-45.0 45.0)
  end
:hierarchy
  begin
    root lhipjoint rhipjoint lowerback
    lhipjoint lfemur
    lfemur ltibia
    ltibia lfoot
    lfoot ltoes
    rhipjoint rfemur
    rfemur rtibia
    rtibia rfoot
    rfoot rtoes
    lowerback upperback
    upperback thorax
    thorax lowerneck lclavicle rclavicle
    lowerneck upperneck
    upperneck head
    lclavicle lhumerus
    lhumerus lradius
    lradius lwrist
    lwrist lhand lthumb
    lhand lfingers
    rclavicle rhumerus
    rhumerus rradius
    rradius rwrist
    rwrist rhand rthumb
    rhand rfingers
  end

#!OML:ASF I:\salsa\salsa 7_09\Patient 1\Session 1\dancerfemale.ASF
:FULLY-SPECIFIED
:DEGREES
581
root -9.38911 16.4544 -4.83658 0.00221299 299.689 721.744
lowerback -0.177479 7.14605 -2.57582
upperback -8.52976 9.22945 -1.59893
thorax -9.04148 4.59769 -0.983957
lowerneck -0.675908 13.2384 1.03259
upperneck 10.3068 17.4113 4.0764
head 3.15041 8.82721 1.61802
rclavicle 9.83984e-014 3.18055e-015
rhumerus -61.4585 -20.0244 -75.1576
rradius 56.6317
rwrist -14.42
rhand 2.62401 49.2451
rfingers 7.12502
rthumb 28.1012 21.3303
lclavicle 9.83984e-014 3.18055e-015
lhumerus 82.4419 38.1654 64.3298
lradius 41.424
lwrist -6.35881
lhand 8.84195 51.1807
lfingers 7.12502
lthumb 34.0272 77.9584
rfemur -9.55577 6.58938 6.47813
rtibia 43.7808
rfoot 1.58606 -17.5105
rtoes -17.0009
lfemur -23.3277 -13.3407 -24.4325
ltibia 45.2894
lfoot -2.13362 -1.71232
ltoes 20.2649
582
root -9.49937 16.5444 -4.9474 1.95978 304.003 719.851
lowerback 0.151667 6.92871 -1.8915
upperback -8.96079 8.96458 -1.59989
thorax -9.59484 4.41102 -1.40742
lowerneck -0.418026 12.9592 1.08348
upperneck 10.9273 16.981 4.6595
head 3.27446 8.64125 1.79209
rclavicle 6.40087e-014 -4.77083e-015
rhumerus -63.7654 -20.6372 -74.6696
rradius 55.5251
rwrist -13.4644
rhand 2.33789 49.6731
rfingers 7.12502
rthumb 27.8277 21.7137
lclavicle 6.40087e-014 -4.77083e-015
lhumerus 80.1327 37.8367 62.4423
lradius 40.1769
lwrist -4.59584
lhand 9.67767 51.5612
lfingers 7.12502
lthumb 34.8206 78.159
rfemur -7.2921 10.8233 6.68623
rtibia 38.6717
rfoot 1.19243 -18.7352
rtoes -17.3809
lfemur -23.6332 -14.4127 -22.9729
ltibia 44.7701
lfoot -1.0761 -2.94758
ltoes 19.5744
583
root -9.59939 16.6124 -5.07428 3.38858 308.323 718.26
lowerback 0.19624 6.73396 -1.09199
upperback -8.89157 8.76173 -1.60041
thorax -9.41137 4.25985 -1.80947
lowerneck -0.630994 12.6518 1.09958
upperneck 11.2529 16.5259 5.02643
head 3.40328 8.43523 1.92935
rclavicle -4.73108e-014 -2.3059e-014
rhumerus -64.9544 -21.391 -74.5487
rradius 54.8977
rwrist -12.8287
rhand 2.4916 49.2491
rfingers 7.12502
rthumb 27.9746 21.3136
lclavicle -4.73108e-014 -2.3059e-014
lhumerus 80.0615 37.432 62.9535
lradius 38.3574
lwrist -3.76713
lhand 11.1996 51.3685
lfingers 7.12502
lthumb 36.2632 77.62
rfemur -5.01661 13.8696 6.92276
rtibia 33.6439
rfoot 2.02919 -17.6708
rtoes -14.8104
lfemur -24.0188 -15.5099 -21.3862
ltibia 44.4282
lfoot -0.287653 -4.27629
ltoes 19.4718
584
root -9.69142 16.652 -5.20878 4.44669 312.369 716.889
lowerback 0.301568 6.57616 -0.582917
upperback -8.81011 8.61482 -1.30837
thorax -9.35071 4.16964 -1.77037
lowerneck -0.715047 12.3887 1.14598
upperneck 11.6612 16.1594 5.06052
head 3.57123 8.26116 1.9584
rclavicle 1.39149e-013 3.49861e-014
rhumerus -65.8869 -21.4702 -74.5188
rradius 54.6144
rwrist -12.4616
rhand 2.52355 48.9973
rfingers 7.12502
rthumb 28.0052 21.0668
lclavicle 1.39149e-013 3.49861e-014
lhumerus 80.1394 37.1276 64.1374
lradius 36.3691
lwrist -3.17606
lhand 12.8757 51.2439
lfingers 7.12502
lthumb 37.8485 77.0842
rfemur -2.82018 16.3224 7.41603
rtibia 28.6228
rfoot 4.73906 -13.4873
rtoes -21.1349
lfemur -24.4918 -16.6997 -19.7607
ltibia 44.2691
lfoot 0.10062 -5.4167
ltoes 19.0328
585
root -9.77825 16.6874 -5.33407 5.54938 316.142 715.575
lowerback 0.10574 6.50925 0.236159
upperback -8.72819 8.59455 -1.11751
thorax -9.04878 4.11958 -1.97077
lowerneck -0.785298 12.0841 1.3192
upperneck 11.8627 15.7463 4.97664
head 3.68706 8.06295 1.91723
rclavicle -7.45443e-014 -1.03368e-014
rhumerus -66.4692 -21.3684 -74.9727
rradius 54.7183
rwrist -12.8832
rhand 2.78469 48.2007
rfingers 7.12502
rthumb 28.2548 20.3112
lclavicle -7.45443e-014 -1.03368e-014
lhumerus 79.7747 36.8018 64.5757
lradius 34.7551
lwrist -1.8566
lhand 14.3398 51.2499
lfingers 7.12502
lthumb 39.2298 76.7037
rfemur -0.988798 18.1148 7.98299
rtibia 23.7831
rfoot 7.34647 -8.08606
rtoes -22.5088
lfemur -25.3385 -18.307 -18.0137
ltibia 44.3928
lfoot 0.191578 -5.8245
ltoes 18.3362
586
root -9.85322 16.7072 -5.46067 6.61716 319.916 714.488
lowerback -0.29391 6.37917 1.10171
upperback -8.58311 8.47781 -0.965189
thorax -8.55174 4.02463 -2.19931
lowerneck -1.1515 11.7596 1.31681
upperneck 11.9188 15.3052 4.93992
head 3.78775 7.84635 1.92789
rclavicle -1.92821e-014 -7.95139e-016
rhumerus -66.4479 -20.9392 -75.8959
rradius 54.918
rwrist -13.758
rhand 2.48052 47.6193
rfingers 7.12502
rthumb 27.964 19.6821
lclavicle -1.92821e-014 -7.95139e-016
lhumerus 79.0713 36.7471 64.3518
lradius 33.4925
lwrist 0.0542999
lhand 15.7254 51.4365
lfingers 7.12502
lthumb 40.534 76.4993
rfemur 0.388284 18.3572 8.51313
rtibia 19.0768
rfoot 11.1237 -1.62043
rtoes -25.9129
lfemur -26.7323 -20.5073 -16.196
ltibia 44.8112
lfoot 0.136926 -5.58896
ltoes 18.2427
587
root -9.91264 16.7004 -5.60422 7.78627 323.723 713.247
lowerback -0.462794 6.13573 2.0887
upperback -8.6179 8.226 -0.59795
thorax -8.41752 3.85258 -2.31177
lowerneck -1.29983 11.4543 0.961187
upperneck 11.9288 14.9001 5.04122
head 3.78884 7.63789 2.01152
rclavicle 4.87022e-014 2.78299e-014
rhumerus -66.4936 -19.8473 -76.7165
rradius 55.381
rwrist -14.6084
rhand 2.04886 47.2131
rfingers 7.12502
rthumb 27.5513 19.2093
lclavicle 4.87022e-014 2.78299e-014
lhumerus 78.089 36.8634 64.2207
lradius 32.2489
lwrist 1.50493
lhand 16.8852 51.7614
lfingers 7.12502
lthumb 41.6231 76.4764
rfemur 1.31748 17.3539 9.31049
rtibia 14.9407
rfoot 16.5262 3.64936
rtoes -24.2833
lfemur -28.581 -22.6031 -13.9741
ltibia 45.4396
lfoot -0.194088 -5.33997
ltoes 18.143
